<svg width="76" height="76" viewBox="0 0 76 76" fill="none" xmlns="http://www.w3.org/2000/svg">
<path opacity="0.35" d="M38.0005 37.0242C42.3122 37.0242 45.8076 33.5288 45.8076 29.2171C45.8076 24.9053 42.3122 21.41 38.0005 21.41C33.6887 21.41 30.1934 24.9053 30.1934 29.2171C30.1934 33.5288 33.6887 37.0242 38.0005 37.0242Z" fill="white"/>
<path opacity="0.35" d="M23.3619 40.9277C26.0567 40.9277 28.2413 38.7431 28.2413 36.0483C28.2413 33.3534 26.0567 31.1688 23.3619 31.1688C20.667 31.1688 18.4824 33.3534 18.4824 36.0483C18.4824 38.7431 20.667 40.9277 23.3619 40.9277Z" fill="white"/>
<path opacity="0.35" d="M52.6392 40.9277C55.334 40.9277 57.5186 38.7431 57.5186 36.0483C57.5186 33.3534 55.334 31.1688 52.6392 31.1688C49.9444 31.1688 47.7598 33.3534 47.7598 36.0483C47.7598 38.7431 49.9444 40.9277 52.6392 40.9277Z" fill="white"/>
<path d="M43.856 54.5902H32.1454C28.9113 54.5902 26.29 51.5317 26.29 47.7589C26.29 43.9862 28.9113 40.9277 32.1454 40.9277H43.856C47.0901 40.9277 49.7113 43.9862 49.7113 47.7589C49.7113 51.5317 47.0901 54.5902 43.856 54.5902Z" fill="white"/>
<path opacity="0.35" d="M56.6418 44.8313H19.2087C16.6519 44.8313 14.5791 46.9041 14.5791 49.4609V49.9625C14.5791 52.5174 16.6519 54.5902 19.2087 54.5902H56.6418C59.2806 54.5902 61.4217 52.4491 61.4217 49.8083V49.6112C61.4217 46.9724 59.2806 44.8313 56.6418 44.8313Z" fill="white"/>
</svg>
