<svg width="76" height="76" viewBox="0 0 76 76" fill="none" xmlns="http://www.w3.org/2000/svg">
<path d="M38 22.9992C38 26.1708 36.2856 28.9352 33.714 30.4139V22.9992C33.714 20.6419 31.7854 18.7133 29.4281 18.7133C27.0708 18.7133 25.1421 20.6419 25.1421 22.9992V30.4139C22.5706 28.9352 20.8562 26.1708 20.8562 22.9992C20.8562 18.2632 24.6921 14.4273 29.4281 14.4273C34.1641 14.4273 38 18.2632 38 22.9992Z" fill="white"/>
<path opacity="0.45" d="M47.6284 36.0327L33.7141 33.714V22.9992C33.7141 20.6333 31.794 18.7132 29.4282 18.7132C27.0623 18.7132 25.1422 20.6333 25.1422 22.9992V35.857V38.5486C25.1422 39.5622 24.705 40.5244 23.9421 41.1909C20.0398 44.6068 20.0398 50.6778 23.9421 54.0937L25.1422 55.1438V59.4297H48.1363C50.8236 59.4297 53.0009 57.2524 53.0009 54.5652V42.3738C53.0009 39.23 50.7293 36.5492 47.6284 36.0327Z" fill="white"/>
<path d="M51.9293 55.1438C51.1021 55.1438 27.0408 55.1438 26.2136 55.1438C24.4392 55.1438 22.9991 56.5839 22.9991 58.3583C22.9991 60.1326 24.4392 61.5727 26.2136 61.5727C27.0408 61.5727 51.1021 61.5727 51.9293 61.5727C53.7037 61.5727 55.1437 60.1326 55.1437 58.3583C55.1437 56.5839 53.7037 55.1438 51.9293 55.1438Z" fill="white"/>
</svg>
