<svg width="76" height="76" viewBox="0 0 76 76" fill="none" xmlns="http://www.w3.org/2000/svg">
<path d="M55.3442 27.7662L50.584 23.006C47.9536 20.3756 43.6916 20.3756 41.0613 23.006L38 26.0672V51.5718C38 55.2458 35.0554 58.2195 31.3994 58.2914C33.1679 58.3273 34.9499 57.6831 36.2988 56.3321L55.3419 37.2889C57.9723 34.6585 57.9723 30.3966 55.3442 27.7662Z" fill="white"/>
<path opacity="0.35" d="M51.4658 38.1057H37.9998V24.6397C37.9998 20.9209 34.9856 17.9067 31.2668 17.9067H24.5338C20.8149 17.9067 17.8008 20.9209 17.8008 24.6397V44.8387V51.5717C17.8008 55.2906 20.8149 58.3047 24.5338 58.3047H31.2668H51.4658C55.1846 58.3047 58.1988 55.2906 58.1988 51.5717V44.8387C58.1988 41.1199 55.1846 38.1057 51.4658 38.1057Z" fill="white"/>
<path d="M27.9002 53.816C29.7595 53.816 31.2667 52.3088 31.2667 50.4495C31.2667 48.5902 29.7595 47.083 27.9002 47.083C26.0409 47.083 24.5337 48.5902 24.5337 50.4495C24.5337 52.3088 26.0409 53.816 27.9002 53.816Z" fill="white"/>
</svg>
