<svg width="96" height="96" viewBox="0 0 96 96" fill="none" xmlns="http://www.w3.org/2000/svg">
<path d="M48 6C34.7812 6 24 16.7812 24 30V36H21C16.0547 36 12 40.0547 12 45V84C12 88.9453 16.0547 93 21 93H75C79.9453 93 84 88.9453 84 84V45C84 40.0547 79.9453 36 75 36H72V30C72 16.7812 61.2188 6 48 6ZM48 12C57.9844 12 66 20.0156 66 30V36H30V30C30 20.0156 38.0156 12 48 12ZM21 42H75C76.6875 42 78 43.3125 78 45V84C78 85.6875 76.6875 87 75 87H21C19.3125 87 18 85.6875 18 84V45C18 43.3125 19.3125 42 21 42Z" fill="white"/>
</svg>
