<svg width="82" height="82" viewBox="0 0 82 82" fill="none" xmlns="http://www.w3.org/2000/svg">
<path d="M31.776 4C23.6458 4 12.1022 6.75143 5.97868 8.303C2.46181 9.21325 0 12.3991 0 15.9987V33.128C0 46.2438 7.77849 57.3323 15.3087 65.1729C22.8183 73.0134 30.3692 77.7302 30.3692 77.7302L31.7967 78.6404L33.2034 77.7302C33.2034 77.7302 40.7337 72.8893 48.2432 64.9867C55.7735 57.1048 63.552 46.037 63.552 33.128V15.9987C63.552 12.3991 61.0901 9.21325 57.594 8.303H57.5733C51.4498 6.75143 39.9062 4 31.776 4ZM31.776 9.296C38.6235 9.296 50.2706 11.9233 56.27 13.4335C57.4491 13.7438 58.256 14.7782 58.256 15.9987V33.128C58.256 43.8648 51.4705 53.9603 44.4367 61.3457C38.0857 67.9864 32.9759 71.2757 31.776 72.0825C30.5554 71.2964 25.4663 68.1105 19.1152 61.5112C12.0815 54.1878 5.296 44.0923 5.296 33.128V15.9987C5.296 14.7782 6.08212 13.7438 7.28199 13.4335C13.2607 11.9233 24.9284 9.296 31.776 9.296Z" fill="white"/>
</svg>
