<svg width="76" height="76" viewBox="0 0 76 76" fill="none" xmlns="http://www.w3.org/2000/svg">
<path d="M34.7002 25.9295C35.6709 25.3531 36.7889 25 38 25C39.2112 25 40.3292 25.3531 41.2999 25.9295C41.2457 25.8796 41.2067 25.8081 41.1504 25.7626C41.211 25.5156 41.25 25.2643 41.25 25V19.5833C41.25 17.7871 39.794 16.3333 38 16.3333C36.206 16.3333 34.75 17.7871 34.75 19.5833V25C34.75 25.2643 34.789 25.5156 34.8497 25.7605C34.7934 25.8081 34.7544 25.8775 34.7002 25.9295Z" fill="white"/>
<path opacity="0.35" d="M38 38C41.5899 38 44.5 35.0899 44.5 31.5C44.5 27.9101 41.5899 25 38 25C34.4101 25 31.5 27.9101 31.5 31.5C31.5 35.0899 34.4101 38 38 38Z" fill="white"/>
<path d="M30.7328 44.5L35.1528 37.3175C32.997 36.258 31.4998 34.0631 31.4998 31.5C31.4998 31.2335 31.5475 30.9821 31.5778 30.7243L23.0996 44.5H20.6665C19.4683 44.5 18.4998 45.4706 18.4998 46.6666C18.4998 47.789 19.3643 48.6816 20.4606 48.7921L16.8163 54.7136C15.8738 56.2433 16.3526 58.2431 17.8801 59.1835C18.411 59.5106 18.9981 59.6666 19.581 59.6666C20.6708 59.6666 21.7368 59.1185 22.35 58.1196L28.0656 48.8333H35.8331V44.5H30.7328Z" fill="white"/>
<path d="M59.1838 54.7136L55.5395 48.7921C56.6358 48.6816 57.5003 47.789 57.5003 46.6666C57.5003 45.4706 56.5318 44.5 55.3337 44.5H52.9005L44.4223 30.7243C44.4527 30.9821 44.5003 31.2335 44.5003 31.5C44.5003 34.0631 43.0032 36.258 40.8473 37.3175L45.2673 44.5H40.167V48.8333H47.9345L53.6502 58.1196C54.2633 59.1185 55.3293 59.6666 56.4192 59.6666C57.002 59.6666 57.5892 59.5106 58.12 59.1835C59.6475 58.2431 60.1263 56.2411 59.1838 54.7136Z" fill="white"/>
<path opacity="0.35" d="M37.9997 42.3333C36.8015 42.3333 35.833 43.304 35.833 44.5V48.8333C35.833 50.0293 36.8015 51 37.9997 51C39.1978 51 40.1663 50.0293 40.1663 48.8333V44.5C40.1663 43.304 39.1978 42.3333 37.9997 42.3333Z" fill="white"/>
</svg>
