<svg width="76" height="76" viewBox="0 0 76 76" fill="none" xmlns="http://www.w3.org/2000/svg">
<path d="M31.4889 41.2127H38.2142L35.4512 50.0798C33.9091 55.0274 29.3899 58.3473 24.2067 58.3473H21.9364C20.1587 58.3473 18.7236 56.9122 18.7236 55.1345C18.7236 53.3568 20.1587 51.9218 21.9364 51.9218H24.2067C26.5627 51.9218 28.6188 50.4011 29.3256 48.1736L31.4889 41.2127Z" fill="white"/>
<path d="M43.5685 24.0782L40.2273 34.7873H33.502L36.8432 24.0782H43.5685Z" fill="white"/>
<path opacity="0.35" d="M21.9364 32.6454C20.1608 32.6454 18.7236 31.2061 18.7236 29.4327C18.7236 20.7905 25.7681 17.6527 30.5036 17.6527H54.0636C55.8392 17.6527 57.2764 19.092 57.2764 20.8654C57.2764 22.6389 55.8392 24.0782 54.0636 24.0782H30.5036C29.2678 24.1017 25.1491 24.5536 25.1491 29.4327C25.1491 31.2061 23.7119 32.6454 21.9364 32.6454Z" fill="white"/>
<path opacity="0.35" d="M43.3549 41.2127H28.3621C26.5866 41.2127 25.1494 39.7734 25.1494 38C25.1494 36.2265 26.5866 34.7872 28.3621 34.7872H43.3549C45.1304 34.7872 46.5676 36.2265 46.5676 38C46.5676 39.7734 45.1304 41.2127 43.3549 41.2127Z" fill="white"/>
</svg>
