<svg width="71" height="71" viewBox="0 0 71 71" fill="none" xmlns="http://www.w3.org/2000/svg">
<path d="M40.1944 7C35.6237 7 31.4717 7.7676 28.2617 9.1458C26.6567 9.82617 25.2785 10.6636 24.2143 11.7452C23.1327 12.8442 22.3302 14.3097 22.3302 15.9321V29.6094C20.8997 29.4523 19.4168 29.3302 17.8642 29.3302C13.2935 29.3302 9.14144 30.0978 5.93147 31.476C4.32648 32.1564 2.94829 32.9938 1.88411 34.0754C0.802495 35.1745 0 36.6399 0 38.2623V56.1265C0 57.7489 0.802495 59.2144 1.88411 60.3134C2.94829 61.395 4.32648 62.2324 5.93147 62.9128C9.14144 64.291 13.2935 65.0586 17.8642 65.0586C22.4349 65.0586 26.5869 64.291 29.7969 62.9128C31.4019 62.2324 32.7801 61.395 33.8443 60.3134C34.9259 59.2144 35.7284 57.7489 35.7284 56.1265V51.3639C37.1589 51.5383 38.6418 51.6605 40.1944 51.6605C44.7651 51.6605 48.9172 50.8929 52.1271 49.5147C53.7321 48.8343 55.1103 47.9969 56.1745 46.9153C57.2561 45.8162 58.0586 44.3508 58.0586 42.7284V15.9321C58.0586 14.3097 57.2561 12.8442 56.1745 11.7452C55.1103 10.6636 53.7321 9.82617 52.1271 9.1458C48.9172 7.7676 44.7651 7 40.1944 7ZM40.1944 11.466C44.2592 11.466 47.9228 12.1988 50.3651 13.2455C51.5863 13.7689 52.5109 14.3794 53.0168 14.8854C53.5053 15.4087 53.5926 15.7053 53.5926 15.9321C53.5926 16.1589 53.5053 16.4555 53.0168 16.9788C52.5109 17.4847 51.5863 18.0953 50.3651 18.6187C47.9228 19.6654 44.2592 20.3981 40.1944 20.3981C36.1296 20.3981 32.4661 19.6654 30.0237 18.6187C28.8025 18.0953 27.8779 17.4847 27.3894 16.9788C26.8835 16.4555 26.7963 16.1589 26.7963 15.9321C26.7963 15.7053 26.8835 15.4087 27.3894 14.8854C27.8779 14.3794 28.8025 13.7689 30.0237 13.2455C32.4661 12.1988 36.1296 11.466 40.1944 11.466ZM26.7963 21.9682C27.2673 22.2125 27.7383 22.4916 28.2617 22.7184C31.4717 24.0966 35.6237 24.8642 40.1944 24.8642C44.7651 24.8642 48.9172 24.0966 52.1271 22.7184C52.6505 22.4916 53.1215 22.2125 53.5926 21.9682V24.8642C53.5926 25.091 53.5053 25.3876 53.0168 25.9109C52.5109 26.4168 51.5863 27.0274 50.3651 27.5508C47.9228 28.5975 44.2592 29.3302 40.1944 29.3302C36.1296 29.3302 32.4661 28.5975 30.0237 27.5508C28.8025 27.0274 27.8779 26.4168 27.3894 25.9109C26.8835 25.3876 26.7963 25.091 26.7963 24.8642V21.9682ZM53.5926 30.9003V33.7963C53.5926 34.0231 53.5053 34.3196 53.0168 34.843C52.5109 35.3489 51.5863 35.9595 50.3651 36.4829C47.9228 37.5296 44.2592 38.2623 40.1944 38.2623C38.6069 38.2623 37.1066 38.1577 35.6935 37.9483C35.6062 36.448 34.8561 35.1047 33.8443 34.0754C33.4256 33.6567 32.9196 33.2904 32.4137 32.924C34.7689 33.4823 37.3857 33.7963 40.1944 33.7963C44.7651 33.7963 48.9172 33.0287 52.1271 31.6505C52.6505 31.4237 53.1215 31.1446 53.5926 30.9003ZM17.8642 33.7963C21.929 33.7963 25.5925 34.529 28.0349 35.5757C29.2561 36.0991 30.1807 36.7097 30.6692 37.2156C31.1751 37.739 31.2623 38.0355 31.2623 38.2623C31.2623 38.4891 31.1751 38.7857 30.6692 39.3091C30.1807 39.815 29.2561 40.4256 28.0349 40.9489C25.5925 41.9957 21.929 42.7284 17.8642 42.7284C13.7994 42.7284 10.1358 41.9957 7.69346 40.9489C6.47228 40.4256 5.54767 39.815 5.05919 39.3091C4.55327 38.7857 4.46605 38.4891 4.46605 38.2623C4.46605 38.0355 4.55327 37.739 5.05919 37.2156C5.54767 36.7097 6.47228 36.0991 7.69346 35.5757C10.1358 34.529 13.7994 33.7963 17.8642 33.7963ZM53.5926 39.8324V42.7284C53.5926 42.9552 53.5053 43.2517 53.0168 43.7751C52.5109 44.281 51.5863 44.8916 50.3651 45.415C47.9228 46.4617 44.2592 47.1944 40.1944 47.1944C38.6243 47.1944 37.124 47.0897 35.7284 46.8978V42.4318C37.1589 42.6062 38.6418 42.7284 40.1944 42.7284C44.7651 42.7284 48.9172 41.9608 52.1271 40.5826C52.6505 40.3558 53.1215 40.0767 53.5926 39.8324ZM4.46605 44.2985C4.93708 44.5427 5.4081 44.8218 5.93147 45.0486C9.14144 46.4268 13.2935 47.1944 17.8642 47.1944C22.4349 47.1944 26.5869 46.4268 29.7969 45.0486C30.3203 44.8218 30.7913 44.5427 31.2623 44.2985V47.1944C31.2623 47.4212 31.1751 47.7178 30.6692 48.2411C30.1807 48.7471 29.2561 49.3577 28.0349 49.881C25.5925 50.9278 21.929 51.6605 17.8642 51.6605C13.7994 51.6605 10.1358 50.9278 7.69346 49.881C6.47228 49.3577 5.54767 48.7471 5.05919 48.2411C4.55327 47.7178 4.46605 47.4212 4.46605 47.1944V44.2985ZM4.46605 53.2131C4.93708 53.4748 5.4081 53.7539 5.93147 53.9807C9.14144 55.3589 13.2935 56.1265 17.8642 56.1265C22.4349 56.1265 26.5869 55.3589 29.7969 53.9807C30.3203 53.7539 30.7913 53.4748 31.2623 53.2131V56.1265C31.2623 56.3533 31.1751 56.6499 30.6692 57.1732C30.1807 57.6792 29.2561 58.2897 28.0349 58.8131C25.5925 59.8598 21.929 60.5926 17.8642 60.5926C13.7994 60.5926 10.1358 59.8598 7.69346 58.8131C6.47228 58.2897 5.54767 57.6792 5.05919 57.1732C4.55327 56.6499 4.46605 56.3533 4.46605 56.1265V53.2131Z" fill="white"/>
</svg>
