<svg width="109" height="109" viewBox="0 0 109 109" fill="none" xmlns="http://www.w3.org/2000/svg">
<g clip-path="url(#clip0_2261_115116)">
<path d="M13.6476 30.6479C0.0301573 44.2654 0.0301645 66.3257 13.6477 79.9432C27.2651 93.5606 49.3255 93.5606 62.9429 79.9432C76.5604 66.3257 76.5604 44.2653 62.9429 30.6479C49.3254 17.0304 27.2651 17.0304 13.6476 30.6479Z" stroke="white" stroke-width="6" stroke-miterlimit="10" stroke-linecap="square"/>
<path d="M38.2955 20.4388C31.1508 20.4195 25.3541 36.0378 25.3541 55.2958C25.3541 74.5538 31.1508 90.1721 38.2955 90.1528C45.4403 90.1721 51.2369 74.5538 51.2369 55.2958C51.2369 36.0378 45.4402 20.4195 38.2955 20.4388Z" stroke="white" stroke-width="6" stroke-miterlimit="10" stroke-linecap="square"/>
<path d="M8.03588 42.9197L68.8248 42.7784M7.47173 66.6146L69.2479 67.1785" stroke="white" stroke-width="6" stroke-miterlimit="10" stroke-linecap="square"/>
</g>
<defs>
<clipPath id="clip0_2261_115116">
<rect width="109" height="109" fill="white"/>
</clipPath>
</defs>
</svg>
