<svg width="76" height="76" viewBox="0 0 76 76" fill="none" xmlns="http://www.w3.org/2000/svg">
<path d="M51.1947 58.2999H49.1647C45.2468 58.2999 42.0597 55.1128 42.0597 51.1949V24.805C42.0597 24.2448 41.605 23.79 41.0447 23.79H39.0147C37.3319 23.79 35.9697 22.4279 35.9697 20.7451C35.9697 19.0622 37.3319 17.7001 39.0147 17.7001H41.0447C44.9626 17.7001 48.1497 20.8872 48.1497 24.805V51.1949C48.1497 51.7552 48.6044 52.2099 49.1647 52.2099H51.1947C52.8775 52.2099 54.2397 53.5721 54.2397 55.2549C54.2397 56.9378 52.8775 58.2999 51.1947 58.2999Z" fill="white"/>
<path d="M45.1046 27.85C43.4217 27.85 42.0596 26.4879 42.0596 24.805C42.0596 20.8872 45.2467 17.7001 49.1645 17.7001H51.1945C52.8774 17.7001 54.2395 19.0622 54.2395 20.7451C54.2395 22.4279 52.8774 23.79 51.1945 23.79H49.1645C48.6043 23.79 48.1495 24.2448 48.1495 24.805C48.1495 26.4879 46.7874 27.85 45.1046 27.85Z" fill="white"/>
<path opacity="0.35" d="M54.2398 48.15H21.7599C18.3962 48.15 15.6699 45.4237 15.6699 42.06V33.94C15.6699 30.5763 18.3962 27.85 21.7599 27.85H54.2398C57.6035 27.85 60.3297 30.5763 60.3297 33.94V42.06C60.3297 45.4237 57.6035 48.15 54.2398 48.15Z" fill="white"/>
<path d="M41.0447 58.2999H39.0147C37.3319 58.2999 35.9697 56.9378 35.9697 55.2549C35.9697 53.5721 37.3319 52.2099 39.0147 52.2099H41.0447C41.605 52.2099 42.0597 51.7552 42.0597 51.195C42.0597 49.5121 43.4218 48.15 45.1047 48.15C46.7876 48.15 48.1497 49.5121 48.1497 51.195C48.1497 55.1128 44.9626 58.2999 41.0447 58.2999Z" fill="white"/>
</svg>
