<svg width="76" height="76" viewBox="0 0 76 76" fill="none" xmlns="http://www.w3.org/2000/svg">
<path d="M47.7109 28.2892C45.9927 26.571 43.2075 26.571 41.4893 28.2892L28.2893 41.4892C26.5711 43.2074 26.5711 45.9926 28.2893 47.7108C30.0075 49.429 32.7927 49.429 34.5109 47.7108L47.7109 34.5108C49.4291 32.7926 49.4291 30.0074 47.7109 28.2892Z" fill="white"/>
<path opacity="0.35" d="M56.4558 19.5442C51.7302 14.8186 44.0698 14.8186 39.3442 19.5442C38.968 19.9204 37.5204 21.368 37.1442 21.7442C33.7386 25.1498 32.8256 30.0734 34.3304 34.3326C30.0712 32.8278 25.1498 33.7386 21.7442 37.1442C21.368 37.5204 19.9204 38.968 19.5442 39.3442C14.8186 44.0698 14.8186 51.7302 19.5442 56.4558C24.2698 61.1814 31.9302 61.1814 36.6558 56.4558C37.032 56.0796 38.4796 54.632 38.8558 54.2558C42.2614 50.8502 43.1744 45.9266 41.6696 41.6674C45.9288 43.1722 50.8502 42.2614 54.2558 38.8558C54.632 38.4796 56.0796 37.032 56.4558 36.6558C61.1814 31.9302 61.1814 24.2698 56.4558 19.5442Z" fill="white"/>
</svg>
