<svg width="196" height="53" viewBox="0 0 196 53" fill="none" xmlns="http://www.w3.org/2000/svg">
<path d="M40.0575 1H41.4335C46.2107 1.10496 50.9099 3.04674 54.2851 6.48422C53.0389 7.77 51.7667 9.00329 50.5465 10.2891C48.6512 8.55721 46.3664 7.21895 43.874 6.74663C40.1873 5.95942 36.215 6.66791 33.1254 8.79337C29.7502 11.0238 27.4655 14.8024 26.9722 18.8434C26.427 22.8319 27.5434 27.0304 30.1137 30.1267C32.5802 33.1444 36.3448 35.0337 40.2392 35.1649C43.874 35.3748 47.6646 34.2465 50.3128 31.6749C52.3898 29.8643 53.3504 27.1091 53.662 24.4326C49.3522 24.4326 45.0423 24.4588 40.7325 24.4326V19.0271H58.8805C59.8152 24.8262 58.4651 31.36 54.1034 35.506C51.1955 38.4449 47.1713 40.1768 43.0692 40.5179C39.0968 40.9115 34.9947 40.1505 31.4638 38.2087C27.2318 35.9258 23.8567 32.0685 22.195 27.5289C20.6373 23.3567 20.6113 18.6335 22.0652 14.435C23.3893 10.604 25.9337 7.21895 29.205 4.85732C32.3465 2.52194 36.163 1.23616 40.0575 1Z" fill="#E3E3E7"/>
<path d="M144.168 2.36426H149.724V39.8353C147.881 39.8353 146.012 39.8616 144.168 39.8091C144.194 27.345 144.168 14.8546 144.168 2.36426V2.36426Z" fill="#E3E3E7"/>
<path d="M71.2391 15.3539C74.6662 14.6979 78.3789 15.4326 81.2089 17.5056C83.7792 19.3424 85.5706 22.2288 86.1159 25.3776C86.8168 29.025 85.9341 33.0135 83.5975 35.8999C81.0791 39.1274 76.951 40.8592 72.9267 40.5968C69.24 40.3869 65.6571 38.5239 63.4762 35.48C61.0098 32.1213 60.4126 27.503 61.7627 23.567C63.1128 19.3424 66.9293 16.1148 71.2391 15.3539V15.3539ZM72.018 20.3395C70.616 20.7068 69.3179 21.5203 68.3832 22.6749C65.8648 25.7187 66.0206 30.6781 68.7986 33.512C70.3824 35.1389 72.7709 35.8999 74.9778 35.4538C77.0288 35.0864 78.8203 33.6957 79.8069 31.8589C81.5204 28.7363 81.0271 24.4329 78.4049 21.9926C76.7173 20.4182 74.2508 19.7622 72.018 20.3395Z" fill="#E3E3E7"/>
<path d="M98.7554 15.3538C102.676 14.5929 106.96 15.695 109.893 18.4764C114.671 22.8061 115.19 30.9144 111.114 35.9C108.647 39.0489 104.649 40.7807 100.703 40.5971C96.938 40.4921 93.2253 38.6028 90.9925 35.4802C88.4741 32.0427 87.9289 27.3194 89.3568 23.3047C90.7848 19.2112 94.5234 16.0886 98.7554 15.3538V15.3538ZM99.5343 20.3395C98.1323 20.7069 96.8341 21.5203 95.8995 22.6487C93.407 25.6401 93.5109 30.5208 96.1851 33.381C97.7688 35.0866 100.235 35.9263 102.52 35.4539C104.545 35.0603 106.363 33.6958 107.349 31.859C109.037 28.7102 108.543 24.4068 105.895 21.9664C104.208 20.392 101.741 19.7622 99.5343 20.3395Z" fill="#E3E3E7"/>
<path d="M122.1 16.8756C125.086 14.9863 129.058 14.4615 132.277 16.0884C133.29 16.5345 134.121 17.2955 134.925 18.0564C134.951 17.3479 134.925 16.6132 134.951 15.8785C136.691 15.9047 138.43 15.8785 140.196 15.9047V39.0486C140.17 42.5386 139.287 46.2385 136.795 48.7838C134.069 51.5915 129.889 52.4574 126.124 51.8801C122.1 51.2766 118.595 48.3114 117.037 44.5591C118.595 43.7981 120.23 43.1946 121.84 42.4861C122.749 44.6378 124.592 46.4746 126.903 46.8945C129.214 47.3143 131.888 46.737 133.394 44.7952C135.003 42.801 135.003 40.072 134.925 37.6317C133.731 38.8125 132.355 39.8621 130.693 40.2557C127.085 41.279 123.112 40.0195 120.334 37.5529C117.53 35.0863 115.869 31.2815 116.024 27.5029C116.102 23.2258 118.491 19.106 122.1 16.8756V16.8756ZM127.474 20.2344C125.89 20.4968 124.41 21.3889 123.398 22.6222C120.957 25.5611 120.957 30.2581 123.424 33.1446C124.826 34.8502 127.085 35.7948 129.266 35.5587C131.317 35.3487 133.212 34.0367 134.224 32.2262C135.938 29.1561 135.652 24.9839 133.342 22.3073C131.914 20.6542 129.629 19.8408 127.474 20.2344V20.2344Z" fill="#E3E3E7"/>
<path d="M156.393 18.2127C159.509 15.2738 164.312 14.2766 168.31 15.8248C172.101 17.268 174.515 20.9154 175.736 24.6678C170.102 27.0294 164.494 29.3648 158.86 31.7264C159.639 33.2221 160.833 34.5866 162.443 35.1377C164.701 35.9511 167.402 35.6625 169.297 34.1405C170.05 33.5632 170.647 32.8023 171.218 32.0675C172.646 33.0384 174.074 33.9831 175.502 34.954C173.477 38.0241 170.076 40.1758 166.415 40.5169C162.365 41.0155 158.055 39.4411 155.433 36.2397C151.123 31.2016 151.538 22.7522 156.393 18.2127V18.2127ZM159.171 23.0671C158.289 24.3529 157.925 25.9273 157.951 27.4755C161.716 25.9011 165.48 24.3267 169.245 22.726C168.622 21.2565 167.116 20.3644 165.584 20.1282C163.118 19.6821 160.547 21.0204 159.171 23.0671V23.0671Z" fill="#E3E3E7"/>
</svg>
