<svg width="245" height="54" viewBox="0 0 245 54" fill="none" xmlns="http://www.w3.org/2000/svg">
<path d="M23.0236 0.138062L46.0472 13.4307V40.0161L23.0236 53.3088L0 40.0161V13.4307L23.0236 0.138062Z" fill="#9281f8"/>
<rect x="0.561662" y="0.972828" width="19.8717" height="19.8717" transform="matrix(0.866025 0.5 -2.20305e-08 1 3.37188 17.1896)" fill="#0F0F12" stroke="#9281f8" stroke-width="1.2971"/>
<rect x="0.561662" y="0.324276" width="19.8717" height="19.8717" transform="matrix(0.866025 -0.5 2.20305e-08 1 24.4933 28.3358)" fill="#0F0F12" stroke="#9281f8" stroke-width="1.2971"/>
<rect x="-3.86567e-08" y="0.648552" width="19.8717" height="19.8717" transform="matrix(0.866025 0.5 -0.866025 0.5 23.5852 4.54754)" fill="#0F0F12" stroke="#9281f8" stroke-width="1.2971"/>
<path d="M71.0742 33.0906C74.7013 33.0906 76.1748 31.4357 76.1748 28.8741C76.1748 26.7658 74.724 25.3603 71.6863 25.247V25.0203C74.452 24.9069 75.4721 23.5241 75.4721 21.5745C75.4721 19.1942 73.8399 17.9021 70.5528 17.9021H60.8957V33.0906H71.0742ZM65.1348 21.7332H69.9861C70.8702 21.7332 71.2102 22.0052 71.2102 22.708C71.2102 23.4107 70.9609 23.6601 70.0994 23.6601H65.1348V21.7332ZM65.1348 27.1512H70.5301C71.5729 27.1512 71.8676 27.3552 71.8676 28.194C71.8676 29.0554 71.5503 29.2594 70.5301 29.2594H65.1348V27.1512ZM90.5669 33.0906V29.2594H81.7938V17.9021H77.532V33.0906H90.5669ZM100.337 33.3173C105.755 33.3173 108.838 30.2342 108.838 25.4963C108.838 20.7584 105.755 17.6754 100.337 17.6754C95.0554 17.6754 91.927 20.7584 91.927 25.4963C91.927 30.2342 95.0554 33.3173 100.337 33.3173ZM100.337 29.2368C97.2543 29.2368 96.4609 28.5114 96.4609 25.4963C96.4609 22.4813 97.2543 21.7559 100.337 21.7559C103.42 21.7559 104.305 22.4813 104.305 25.4963C104.305 28.5114 103.42 29.2368 100.337 29.2368ZM118.589 33.3173C123.69 33.3173 126.75 30.8916 126.75 26.8338V26.4484H121.99V26.8338C121.99 28.5567 121.174 29.2368 118.657 29.2368C115.574 29.2368 114.735 28.5114 114.735 25.4963C114.735 22.4813 115.574 21.7559 118.657 21.7559C121.174 21.7559 121.99 22.436 121.99 24.1588V24.5442H126.75V24.1588C126.75 20.101 123.69 17.6754 118.589 17.6754C113.307 17.6754 110.202 20.7584 110.202 25.4963C110.202 30.2342 113.307 33.3173 118.589 33.3173ZM132.588 33.0906V27.6953H135.694L139.23 33.0906H144.331L139.185 25.3603L144.444 17.9021H139.344L135.649 23.5468H132.588V17.9021H128.326V33.0906H132.588ZM153.522 33.3173C158.623 33.3173 161.683 30.8916 161.683 26.8338V26.4484H156.923V26.8338C156.923 28.5567 156.107 29.2368 153.59 29.2368C150.507 29.2368 149.668 28.5114 149.668 25.4963C149.668 22.4813 150.507 21.7559 153.59 21.7559C156.107 21.7559 156.923 22.436 156.923 24.1588V24.5442H161.683V24.1588C161.683 20.101 158.623 17.6754 153.522 17.6754C148.24 17.6754 145.135 20.7584 145.135 25.4963C145.135 30.2342 148.24 33.3173 153.522 33.3173ZM167.521 33.0906V27.3779H174.594V33.0906H178.856V17.9021H174.594V23.5468H167.521V17.9021H163.259V33.0906H167.521ZM184.547 33.0906L185.726 30.2796H192.935L194.091 33.0906H198.987L192.413 17.9021H186.315L179.764 33.0906H184.547ZM188.22 24.3175L189.194 21.7559H189.489L190.486 24.3175L191.371 26.4484H187.335L188.22 24.3175ZM204.159 33.0906V17.9021H199.897V33.0906H204.159ZM210.235 33.0906V27.1512L210.054 24.2495H210.349L212.276 27.2419L216.764 33.0906H221.298V17.9021H217.036V23.7735L217.24 27.0832H216.946L214.724 23.5921L210.507 17.9021H205.974V33.0906H210.235ZM231.408 33.0906L234.899 28.1486H235.194L238.844 33.0906H244.42L238.708 25.723V25.4283L244.42 17.9021H238.844L235.375 22.8213H235.08L231.408 17.9021H225.831L231.567 25.3376V25.6323L225.831 33.0906H231.408Z" fill="white"/>
</svg>
