<svg width="196" height="53" viewBox="0 0 196 53" fill="none" xmlns="http://www.w3.org/2000/svg">
<path d="M21.0084 3.05103C18.4779 3.33765 14.6821 4.52824 12.5224 5.71882C6.71971 8.87165 2.79304 13.7883 0.829713 20.3365C0.437046 21.6153 -0.0210646 25.0988 0.000750216 26.7304C0.000750216 28.1635 0.437046 31.6691 0.698824 32.5069C0.829713 32.9038 1.1133 33.8518 1.35327 34.5794C1.74593 35.8141 3.64382 39.6945 3.97104 39.9591C4.03649 40.0252 4.38552 40.4662 4.71275 40.9733C5.51989 42.1859 7.63593 44.3466 9.22841 45.5813C10.45 46.5293 13.8968 48.5357 14.3331 48.5577C14.4421 48.5577 14.464 47.7199 14.3985 46.6175C14.2458 44.1702 14.7039 40.841 15.6856 37.4456C15.8601 36.8724 15.991 36.1227 15.991 35.792C15.991 35.4613 16.0783 35.1085 16.1873 34.9983C16.2964 34.866 16.4927 34.2266 16.6018 33.5652C16.7327 32.9038 16.9508 31.8896 17.1036 31.3163C17.3217 30.4565 17.2999 30.1257 16.9945 29.1997C16.5582 27.7887 16.5364 25.4957 16.9727 24.3933C17.998 21.7696 19.1323 20.7775 21.052 20.7775C23.3644 20.7775 24.477 22.5413 24.0407 25.4957C23.8443 26.8406 23.299 28.9572 22.9499 29.6186C22.8627 29.8171 22.71 30.3683 22.6445 30.8313C22.5573 31.3163 22.3827 31.9998 22.2737 32.3746C21.9683 33.2345 22.5573 34.9101 23.3426 35.5495C24.0843 36.1448 25.6331 36.3212 27.0511 35.9905C28.0546 35.77 28.4691 35.5054 29.5162 34.4912C30.7596 33.2565 31.6977 31.8234 31.6977 31.1399C31.6977 30.9415 31.8067 30.6769 31.9376 30.5446C32.5484 29.9273 32.8757 25.1209 32.4175 23.0925C31.9158 20.8657 30.3669 18.6829 28.36 17.4042C26.353 16.1033 22.2082 15.7285 19.6559 16.6104C17.8671 17.2278 16.2746 18.264 15.2493 19.4766C14.3331 20.557 13.3732 22.3208 13.3732 22.9382C13.3732 23.1586 13.2641 23.4453 13.1333 23.5775C13.0024 23.7098 12.8497 24.5476 12.7842 25.4516C12.6751 26.7965 12.7624 27.4139 13.1551 28.7367C13.4169 29.6407 13.8968 30.699 14.1804 31.0958C14.7694 31.8896 14.7694 32.1982 14.224 34.3148C14.0713 34.8881 13.8095 35.4172 13.6568 35.4834C12.2825 36.0125 9.49019 32.6833 8.55215 29.3761C8.20312 28.1194 8.1813 23.6437 8.53034 22.3208C8.68304 21.7696 8.94482 21.02 9.11934 20.6231C9.29386 20.2483 9.44656 19.8735 9.44656 19.7853C9.44656 19.6971 9.88285 18.9475 10.4282 18.1317C13.2641 13.8104 17.8671 11.5174 23.6916 11.5174C25.0223 11.5174 26.3967 11.6056 26.7675 11.7158C29.778 12.6639 30.5851 12.9725 31.7631 13.6781C34.0537 15.0671 35.7116 16.9632 37.3695 20.1381C37.4786 20.3365 37.6313 20.8657 37.6967 21.3066C37.784 21.7476 37.9367 22.1665 38.0458 22.2326C38.1548 22.2988 38.2421 23.7319 38.2421 25.4296C38.2421 28.4942 38.0239 29.7289 37.1077 32.2423C36.0824 34.9983 33.4428 38.0409 31.0432 39.2315C29.6689 39.8929 27.0947 40.6205 26.0694 40.6205C24.6951 40.6205 21.9901 39.474 21.2484 38.548C20.8993 38.1291 20.5721 38.2834 20.5721 38.8787C20.5721 39.0992 20.4848 39.474 20.354 39.6945C20.2449 39.8929 20.0486 40.5103 19.9395 41.0615C19.3068 43.9718 18.4124 46.3309 17.0381 48.5357C16.6236 49.2191 16.9727 49.616 18.107 49.7703C18.6742 49.8585 19.4377 50.0129 19.7868 50.1231C20.6594 50.4097 25.3932 50.3656 26.9857 50.079C28.4254 49.8144 30.7596 49.153 31.8067 48.712C38.3948 45.9781 43.3904 40.4221 45.5501 33.3447C46.7062 29.5745 46.7717 25.187 45.7246 20.7775C45.3755 19.3444 45.2665 19.0136 44.3284 16.8089C42.9759 13.5899 39.9218 9.81971 36.8241 7.50469C34.1627 5.52039 31.545 4.3739 27.4656 3.38175C26.3312 3.11718 22.2955 2.8967 21.0084 3.05103ZM79.1885 11.0103C78.3377 11.1426 76.9852 12.5536 76.6361 13.656C76.2653 14.8687 76.6361 16.1695 77.6832 17.1837C79.9956 19.4546 84.0095 17.316 83.5078 14.0529C83.2024 11.9804 81.3263 10.6575 79.1885 11.0103ZM55.4103 12.3111C55.214 12.5316 55.214 39.1212 55.4322 39.4299C55.5412 39.6063 56.4793 39.6724 58.3117 39.6504L61.0386 39.6283L61.1476 35.1526C61.2349 31.5147 61.3222 30.6328 61.5839 30.4785C61.7584 30.3683 63.2419 30.258 64.878 30.258C68.4556 30.258 69.9608 29.9935 71.5969 29.1115C73.7348 27.943 74.9782 26.2674 75.6545 23.5996C76.069 21.924 76.069 20.7113 75.6327 18.9916C75.24 17.4482 75.0655 17.0734 74.1274 15.8167C72.9713 14.2513 71.7933 13.3915 69.8736 12.708C68.8046 12.3552 67.9102 12.2891 62.1293 12.2229C58.5299 12.1788 55.4976 12.2229 55.4103 12.3111ZM67.3867 17.801C68.8483 18.264 69.5681 18.9255 69.8954 20.116C70.3098 21.6814 70.0044 23.1366 69.0882 24.0185C68.0847 24.9665 67.1903 25.187 64.2671 25.187C62.3474 25.187 61.7584 25.1209 61.4967 24.8343C61.2131 24.5697 61.1476 23.9303 61.1476 21.4169C61.1476 17.4482 61.1258 17.4703 64.1581 17.4703C65.467 17.4703 66.7322 17.6026 67.3867 17.801ZM105.65 16.5002C105.65 18.0215 105.541 19.4546 105.432 19.6971C105.279 19.9837 104.974 20.116 104.45 20.116C104.057 20.116 103.686 20.2042 103.643 20.3365C103.621 20.4468 103.621 21.2184 103.686 22.0342C103.796 23.4893 103.817 23.5114 104.472 23.6657C104.843 23.7319 105.257 23.8642 105.388 23.9524C105.584 24.0626 105.65 25.8044 105.65 30.2139C105.65 36.1448 105.672 36.3653 106.152 37.2472C107.155 39.1212 108.726 39.7827 111.911 39.6945L114.049 39.6283L114.114 37.4897L114.179 35.329H113.634C112.805 35.329 111.583 34.6676 111.453 34.1384C111.387 33.8739 111.322 31.5368 111.322 28.9131C111.322 25.2973 111.387 24.0846 111.605 23.9083C111.758 23.776 112.369 23.6437 112.958 23.5996L114.049 23.5334V20.2263L112.849 20.1601C112.194 20.116 111.583 19.9617 111.496 19.8294C111.409 19.6751 111.322 18.242 111.322 16.6325V13.7222H105.65V16.5002ZM186.735 13.8545C186.648 13.9426 186.583 15.3317 186.583 16.9412C186.583 20.0719 186.561 20.116 185.361 20.116C184.816 20.116 184.816 20.1381 184.881 21.8137C184.947 23.4893 184.968 23.5334 185.536 23.5996C185.841 23.6437 186.212 23.798 186.321 23.9303C186.452 24.0846 186.583 26.7524 186.648 30.1478C186.714 33.4109 186.823 36.3873 186.91 36.7401C187.172 37.7102 188.524 38.9449 189.811 39.3638C191.251 39.8488 194.916 39.8929 195.287 39.4299C195.461 39.2315 195.527 38.4378 195.483 37.2913L195.418 35.4393L194.654 35.307C193.825 35.1747 192.887 34.7337 192.647 34.3589C192.56 34.2266 192.473 31.8234 192.473 29.0233C192.473 23.2689 192.342 23.6437 194.24 23.6437C195.483 23.6437 195.592 23.4232 195.483 21.4169L195.418 20.2263L194 20.116L192.582 20.0058L192.473 16.9191L192.364 13.8324L189.615 13.7663C188.11 13.7442 186.823 13.7883 186.735 13.8545ZM94.8515 19.5869C93.7826 19.8735 92.5391 20.6011 91.7102 21.4609C90.7067 22.5192 90.4449 22.4531 90.3358 21.1082L90.2704 20.2263H84.8167V39.6283L87.5654 39.6724C90.2704 39.7386 90.3358 39.7165 90.4667 39.2315C90.5322 38.9669 90.5976 36.1668 90.5976 32.992C90.5976 26.7083 90.6194 26.5319 91.9065 25.2973C92.4737 24.7461 92.7791 24.6358 94.0007 24.5697L95.4187 24.4815L96.2695 25.3855C97.2729 26.4438 97.1639 25.4296 97.2511 34.5573C97.2729 36.9826 97.2948 39.1212 97.3166 39.3417C97.3602 39.6504 97.7092 39.6945 100.152 39.6504L102.923 39.6283V24.1508L102.29 22.8941C101.2 20.7113 99.5199 19.6751 96.9457 19.5428C96.0295 19.5207 95.0915 19.5207 94.8515 19.5869ZM122.12 19.5869C119.764 20.2263 118.63 20.8657 117.168 22.3208C115.205 24.3272 114.31 26.6642 114.31 29.8171C114.332 35.3511 117.757 39.452 122.818 39.937C127.137 40.3559 130.475 39.0771 132.613 36.1889C132.918 35.77 133.573 34.4251 133.573 34.1825C133.573 34.0943 132.308 34.0062 130.78 34.0062H127.988L127.334 34.6896C126.57 35.4834 125.501 35.9905 124.52 35.9905C123.538 35.9905 122.033 35.2849 121.335 34.5353C120.811 33.94 120.048 32.2203 120.048 31.625C120.048 31.4266 121.64 31.3604 126.767 31.3604C130.453 31.3604 133.573 31.2722 133.725 31.184C134.053 30.9636 133.747 27.458 133.267 26.1792C132.286 23.5114 130.431 21.2625 128.555 20.4688C128.01 20.2483 127.377 19.9617 127.159 19.8515C126.701 19.6089 122.818 19.4105 122.12 19.5869ZM126.374 24.4154C127.225 25.0106 127.966 26.4217 127.857 27.2154C127.792 27.7225 127.748 27.7225 124.062 27.7887C119.808 27.8548 119.786 27.8328 120.462 26.2453C120.942 25.1429 121.902 24.1508 122.796 23.8642C123.822 23.5334 125.479 23.798 126.374 24.4154ZM154.406 19.5869C151.875 20.2704 150.108 21.3948 148.734 23.1366C148.189 23.8421 147.752 24.5035 147.752 24.6358C147.752 24.7461 147.6 25.1429 147.403 25.5177C147.207 25.8705 146.923 26.9729 146.771 27.9651C146.007 32.6833 148.101 37.0928 152.028 39.0771L153.533 39.8488H156.696C159.969 39.8488 160.252 39.7827 162.259 38.7023C163.721 37.9086 166.12 34.8219 165.75 34.2046C165.662 34.0943 164.419 34.0062 162.957 34.0062H160.274L159.729 34.6455C157.547 37.1369 153.468 35.8582 152.595 32.3967C152.464 31.9337 152.464 31.5368 152.573 31.4486C152.683 31.3825 155.802 31.3384 159.532 31.3604C164.855 31.3604 166.295 31.3163 166.317 31.0958C166.513 28.3399 165.204 24.261 163.568 22.4972C162.652 21.505 161.059 20.4027 160.274 20.2042C159.925 20.116 159.532 19.9617 159.38 19.8515C159.074 19.6089 155.082 19.4105 154.406 19.5869ZM157.809 23.8862C158.791 24.239 159.925 25.4736 160.1 26.4217C160.361 27.8548 160.383 27.8548 156.326 27.7887C152.683 27.7225 152.661 27.7225 152.595 27.2154C152.508 26.5981 153.272 25.0768 153.926 24.5035C154.864 23.7098 156.5 23.4453 157.809 23.8862ZM173.385 19.5869C168.913 20.6672 167.298 22.2767 167.277 25.628C167.277 29.2438 169.065 30.7651 174.366 31.7132C178.01 32.3526 179.057 32.9258 179.013 34.3148C178.991 35.307 178.315 35.9464 176.962 36.233C175.261 36.6078 173.93 36.1889 172.861 34.9763L172.01 34.0062H169.371C167.233 34.0062 166.731 34.0723 166.731 34.3148C166.731 34.9542 167.604 36.6298 168.324 37.4677C169 38.1952 169.524 38.548 171.574 39.5402C171.77 39.6504 172.839 39.8268 173.908 39.9591C175.893 40.2016 179.34 39.9811 180.213 39.5402C180.409 39.452 180.976 39.1653 181.456 38.9449C182.7 38.3496 183.878 37.0047 184.314 35.7259C184.794 34.2707 184.663 32.2423 183.987 30.8313C183.18 29.1777 181.042 27.9871 177.857 27.4139C173.756 26.6863 173.69 26.6642 173.036 26.0248C172.25 25.2091 172.25 24.9225 173.036 24.0405C173.668 23.335 173.712 23.313 175.457 23.313C177.202 23.313 177.246 23.335 177.879 24.0405C178.228 24.4374 178.511 24.9004 178.511 25.0768C178.511 25.3414 178.969 25.4075 181.238 25.4075C184.249 25.4075 184.161 25.4736 183.638 23.9083C182.678 21.1302 180.213 19.7192 176.112 19.5648C174.846 19.5207 173.625 19.5207 173.385 19.5869ZM144.371 20.0499C143.411 20.3806 142.081 21.483 141.666 22.2767C141.252 23.0704 140.881 22.7397 140.772 21.4169L140.663 20.2263H135.209L135.143 29.4864C135.122 34.5794 135.143 38.9669 135.209 39.2535C135.318 39.7386 135.383 39.7386 138.001 39.6945C139.506 39.6724 140.728 39.5402 140.815 39.4079C140.903 39.2976 140.99 36.9606 140.99 34.2266C140.99 29.9053 141.033 29.1336 141.404 28.1635C142.168 26.1571 143.804 24.9666 145.855 24.9666C146.422 24.9666 146.662 24.8563 146.727 24.5697C146.88 23.9303 146.902 20.9538 146.771 20.2924C146.64 19.7633 146.531 19.6751 145.942 19.6971C145.549 19.7192 144.851 19.8735 144.371 20.0499ZM77.1815 20.3806C77.1161 20.5349 77.0943 24.8784 77.1161 30.0375L77.1815 39.4079L79.7775 39.5181C81.3481 39.5842 82.4825 39.5402 82.657 39.4079C82.897 39.2315 82.9624 37.3574 82.9624 29.8612C82.9842 24.7461 82.9188 20.4468 82.8534 20.3365C82.6352 20.0058 77.2906 20.0499 77.1815 20.3806Z" fill="#E3E3E7"/>
</svg>
