<svg width="175" height="52" viewBox="0 0 175 52" fill="none" xmlns="http://www.w3.org/2000/svg">
<path d="M29.0867 45.8949L17.6582 45.6835C13.9578 45.61 10.2484 45.757 6.62071 44.9944C1.10195 43.8549 0.711005 38.268 0.301871 33.5817C-0.261824 26.9932 -0.043619 20.2853 1.02013 13.752C1.62019 10.0856 3.98407 7.89861 7.639 7.6597C19.9766 6.79594 32.3961 6.89701 44.7065 7.30133C46.0066 7.33808 47.3159 7.54024 48.5978 7.76996C54.9257 8.89101 55.0803 15.2222 55.4894 20.5518C55.8986 25.9365 55.7258 31.3488 54.9439 36.6967C54.3166 41.1258 53.1165 44.8381 48.0523 45.1965C41.7062 45.6651 35.5055 46.0419 29.1412 45.9224C29.1412 45.8949 29.1049 45.8949 29.0867 45.8949V45.8949ZM22.3678 34.6844C27.1501 31.9093 31.8415 29.1802 36.5966 26.4235C31.8052 23.6484 27.1228 20.9193 22.3678 18.1627V34.6844Z" fill="white"/>
<path d="M147.157 40.8604C146.939 41.7609 146.748 42.4685 146.557 43.222H142.084V8.34961H147.303V21.2143C147.575 20.8651 147.712 20.718 147.83 20.5618C148.721 19.3213 149.876 18.5127 151.367 18.2003C153.74 17.7316 155.767 18.7883 156.485 21.0948C156.949 22.5283 157.249 24.0629 157.285 25.5607C157.358 29.4109 157.304 33.2519 157.167 37.1021C157.113 38.2783 156.758 39.482 156.313 40.5847C154.849 44.2236 150.066 44.7749 147.693 41.6231C147.548 41.4301 147.412 41.2188 147.157 40.8604V40.8604ZM147.412 31.2671V37.6442C147.412 38.6826 147.957 39.3166 148.985 39.5556C149.994 39.7945 150.812 39.3993 151.221 38.4529C151.394 38.0577 151.567 37.6442 151.576 37.2307C151.676 33.3346 151.767 29.4384 151.794 25.5331C151.794 24.8072 151.621 24.0537 151.403 23.3461C150.994 22.0688 149.866 21.6921 148.757 22.4364C147.921 23.0061 147.412 23.8148 147.412 24.8899V31.2671ZM133.228 18.6965H138.693V43.2404H134.428C134.274 42.3123 134.119 41.3566 133.938 40.2356C133.647 40.6674 133.474 40.9431 133.292 41.2188C131.874 43.2863 129.864 43.9939 127.491 43.6171C125.464 43.2863 124.246 41.7058 123.973 39.1145C123.891 38.3426 123.855 37.5615 123.855 36.7897C123.836 31.0465 123.855 25.285 123.855 19.5419V18.6781H129.383V19.6797C129.383 25.2299 129.364 30.7708 129.401 36.321C129.401 37.1113 129.483 37.9291 129.619 38.7194C129.773 39.528 130.355 39.822 131.137 39.7669C132.401 39.6658 133.274 38.7194 133.274 37.4513V19.7808C133.228 19.4224 133.228 19.0916 133.228 18.6965V18.6965ZM95.6063 18.6781H101.098V19.7164C101.098 25.239 101.08 30.7525 101.116 36.2567C101.116 37.047 101.189 37.8648 101.352 38.6367C101.561 39.5464 102.089 39.8404 102.989 39.721C104.234 39.5464 104.989 38.6734 104.998 37.3961V19.8175V18.7148H110.462V43.2404H106.216C106.062 42.3306 105.907 41.3934 105.707 40.208C105.435 40.6215 105.28 40.8604 105.125 41.1085C103.707 43.2128 101.716 43.9847 99.2885 43.6079C97.3428 43.3139 96.1518 41.862 95.7881 39.482C95.6881 38.7377 95.6154 38.0026 95.6154 37.2583C95.5972 31.2946 95.5972 25.3034 95.5972 19.3397L95.6063 18.6781ZM92.7878 31.7816C92.7696 32.6087 92.7151 33.4357 92.6696 34.2627C92.4605 36.7437 92.3605 40.2631 90.3785 42.0734C89.1147 43.2128 87.5146 43.6263 85.8598 43.6814C85.1234 43.6998 84.3779 43.6998 83.6414 43.5987C80.1593 43.0658 78.5409 41.5128 77.959 37.6442C77.2953 33.1784 77.2408 28.639 78.0318 24.1731C78.85 19.551 81.6685 17.9154 86.0508 18.2186C90.1421 18.5127 91.9696 21.2234 92.4514 25.0828C92.7151 27.2974 92.8424 29.5395 92.7878 31.7816V31.7816ZM87.2236 30.9363C87.2236 29.3649 87.26 27.7844 87.2054 26.2131C87.1691 25.3034 87.0509 24.3845 86.8599 23.4839C86.6417 22.4456 85.9871 21.9494 85.1689 21.9678C84.3688 21.9861 83.8051 22.4823 83.5141 23.4472C83.4141 23.8056 83.305 24.1731 83.305 24.5315C83.305 26.9942 83.2869 29.466 83.2687 31.9287C83.2505 34.2259 82.9595 36.6334 83.6778 38.8296C83.896 39.5004 84.4597 39.868 85.1961 39.868C85.9144 39.868 86.3872 39.5096 86.6508 38.8664C86.8599 38.3702 87.0418 37.828 87.0418 37.2951C87.1054 35.1816 87.2236 33.0589 87.2236 30.9363ZM69.94 26.3142C70.4219 23.9342 70.8765 21.6094 71.3765 19.2754C72.0039 16.3073 72.7039 13.3393 73.3222 10.362C73.4768 9.63607 73.7677 9.46148 74.4496 9.47986C75.9134 9.53499 77.4044 9.49824 78.9682 9.49824C78.4591 11.3912 77.959 13.1922 77.4681 14.9657C75.9134 20.5343 74.3587 26.1212 72.8221 31.7081C72.7039 32.14 72.6494 32.6087 72.6494 33.0681C72.6312 36.1189 72.6494 39.1604 72.6494 42.2112V43.2036H67.3125C67.2943 42.9279 67.2579 42.6523 67.2579 42.3766C67.2579 40.6491 67.1216 38.9123 67.2761 37.2032C67.6671 33.0957 66.376 29.319 65.3305 25.4963C63.9485 20.4424 62.5484 15.37 61.1664 10.3161C61.0937 10.0771 61.0664 9.81985 60.9937 9.52581H66.4397C67.5852 15.1035 68.7399 20.6813 69.94 26.3142ZM174.36 32.7189H165.159C165.259 34.5843 165.295 36.3578 165.486 38.1129C165.623 39.335 166.286 39.8588 167.332 39.868C168.423 39.8864 169.059 39.335 169.314 38.1221C169.396 37.7269 169.45 37.3318 169.487 36.9275C169.523 36.5691 169.541 36.1832 169.568 35.6686C171.123 35.7513 172.641 35.8432 174.142 35.9075C175.014 38.5264 173.442 41.8896 170.796 42.9279C168.714 43.7549 166.577 43.7549 164.45 43.1209C162.877 42.6523 161.704 41.6415 161.177 40.0885C160.686 38.6367 160.222 37.1205 160.122 35.6043C159.849 31.8643 159.749 28.0877 160.313 24.3385C160.413 23.7137 160.586 23.1164 160.777 22.5099C161.54 20.0105 163.204 18.4759 165.777 18.2186C167.177 18.0808 168.623 18.1359 170.005 18.3748C172.241 18.77 173.432 20.3964 173.951 22.5283C174.187 23.5299 174.36 24.5591 174.396 25.579C174.405 27.9222 174.36 30.2471 174.36 32.7189ZM169.132 29.4936C169.132 27.6466 169.15 25.9099 169.114 24.1639C169.114 23.7504 168.959 23.3185 168.805 22.9234C168.496 22.1515 167.85 21.9402 167.077 21.9402C166.304 21.9402 165.814 22.3353 165.623 23.0429C165.041 25.1655 165.232 27.3341 165.25 29.512C166.641 29.4936 167.905 29.4936 169.132 29.4936V29.4936Z" fill="white"/>
<path d="M114.681 14.0024H109.271V9.57324H125.418V13.9748H120.045V43.2051H114.69L114.681 14.0024Z" fill="white"/>
</svg>
