<svg width="182" height="52" viewBox="0 0 182 52" fill="none" xmlns="http://www.w3.org/2000/svg">
<path d="M11.5189 43.0202H4.6674V25.7576H0V20.1373H4.66721V16.138C4.66721 11.3989 6.73153 8 13.5645 8C15.0097 8 17.2786 8.2944 17.2786 8.2944V13.5132H14.8955C12.4674 13.5132 11.5193 14.2597 11.5193 16.3235V20.1373H17.1877L16.6829 25.7576H11.5191L11.5189 43.0202ZM27.24 19.6882C27.1401 19.6882 27.0374 19.6918 26.9358 19.6944C20.5826 19.6944 17.6759 24.5243 17.6759 31.3806C17.6759 40.0175 21.4463 43.4743 26.9854 43.4743C30.1545 43.4743 32.2367 42.1262 33.5022 39.6103V43.0226H40.019V20.1397H33.5022V23.6588C32.4689 21.3947 30.3285 19.715 27.24 19.6882ZM28.897 25.0953C31.5653 25.0953 33.1669 26.9764 33.1669 30.1761L33.1731 33.4442C33.1731 35.6007 31.8503 38.1238 28.897 38.1238C24.3567 38.1238 24.478 33.1689 24.478 31.5186C24.478 25.9673 26.897 25.0953 28.897 25.0953ZM42.6508 31.5823C42.6508 28.8017 42.5191 19.7031 54.2479 19.7031C58.956 19.7031 60.922 21.2161 60.922 21.2161L59.3419 26.1693C59.3419 26.1693 57.3785 25.0766 54.8201 25.0766C51.5434 25.0766 49.4525 26.9965 49.4525 30.3744L49.4561 32.7965C49.4561 36.0423 51.4736 38.209 54.8269 38.209C57.1576 38.209 59.3057 37.106 59.3057 37.106L60.8818 41.9558C60.8818 41.9558 59.0842 43.4784 54.2808 43.4784C43.1132 43.4784 42.651 35.3151 42.651 31.5823H42.6508ZM99.1323 19.6944C105.486 19.6944 108.438 24.5243 108.438 31.3806C108.438 40.0175 104.668 43.4743 99.1285 43.4743C95.9594 43.4743 93.6167 42.1263 92.3511 39.6103V43.0226L85.9164 43.02V8.69577L92.7484 8.09354V23.3487C93.7345 20.6798 96.9751 19.6944 99.1325 19.6944H99.1323ZM97.2169 25.0953C94.5486 25.0953 92.7484 26.9764 92.7484 30.1761L92.7421 33.4442C92.7381 35.6007 93.9887 38.1238 97.2169 38.1238C101.757 38.1238 101.636 33.1689 101.636 31.5186C101.636 25.9673 99.217 25.0953 97.2169 25.0953ZM72.7762 19.7133C65.5703 19.7133 61.766 23.6841 61.766 30.7407V32.0517C61.766 41.2104 67.1084 43.5684 73.4775 43.5684C79.6683 43.5684 82.4705 41.8183 82.4705 41.8183L81.192 37.1578C81.192 37.1578 77.8958 38.5753 74.2967 38.5753C70.5655 38.5753 68.9609 37.6142 68.5496 33.9901H83.0167V30.2513C83.0167 22.5967 78.7472 19.7132 72.776 19.7132L72.7762 19.7133ZM72.9499 24.3801C75.4442 24.3801 77.0605 25.926 76.9718 29.5112H68.5621C68.708 25.7378 70.451 24.3803 72.9499 24.3803V24.3801ZM122.061 19.6819C114.661 19.6819 110.765 23.8966 110.765 31.4495C110.765 41.8125 117.481 43.4806 122.073 43.4806C128.797 43.4806 133.27 39.8222 133.27 31.5436C133.27 22.927 128.24 19.6819 122.061 19.6819V19.6819ZM121.968 25.1141C125.222 25.1141 126.511 27.5754 126.511 30.377V32.7857C126.511 36.1796 124.707 38.1427 121.956 38.1427C119.382 38.1427 117.574 36.3064 117.574 32.7857V30.377C117.574 26.6221 119.726 25.1141 121.968 25.1141V25.1141ZM146.881 19.6819C139.481 19.6819 135.585 23.8966 135.585 31.4495C135.585 41.8125 142.3 43.4806 146.893 43.4806C153.616 43.4806 158.089 39.8222 158.089 31.5436C158.089 22.927 153.06 19.6819 146.881 19.6819V19.6819ZM146.787 25.1141C150.041 25.1141 151.33 27.5754 151.33 30.377V32.7857C151.33 36.1796 149.526 38.1427 146.775 38.1427C144.202 38.1427 142.393 36.3064 142.393 32.7857V30.377C142.393 26.6221 144.545 25.1141 146.787 25.1141V25.1141ZM160.671 43.0202V8.69577L167.523 8.09354V31.0999L174.321 20.1373H181.557L174.466 31.4914L181.83 43.0202H174.573L167.523 31.8258V43.0202H160.671Z" fill="white"/>
</svg>
