<svg width="196" height="53" viewBox="0 0 196 53" fill="none" xmlns="http://www.w3.org/2000/svg">
<path d="M14.9987 44.4789H7.8618V26.4973H3V20.6429H7.86161V16.477C7.86161 11.5405 10.0119 8 17.1295 8C18.6349 8 20.9983 8.30667 20.9983 8.30667V13.7428H18.5159C15.9867 13.7428 14.9991 14.5204 14.9991 16.6702V20.6429H20.9036L20.3778 26.4973H14.9989L14.9987 44.4789ZM31.3746 20.175C31.2706 20.175 31.1636 20.1788 31.0577 20.1815C24.4399 20.1815 21.4121 25.2126 21.4121 32.3544C21.4121 41.3511 25.3396 44.9519 31.1094 44.9519C34.4105 44.9519 36.5794 43.5476 37.8976 40.9269V44.4814H44.6859V20.6453H37.8976V24.311C36.8212 21.9526 34.5918 20.203 31.3746 20.175ZM33.1006 25.8074C35.8801 25.8074 37.5484 27.7668 37.5484 31.0998L37.5548 34.504C37.5548 36.7504 36.1769 39.3785 33.1006 39.3785C28.3712 39.3785 28.4975 34.2172 28.4975 32.4982C28.4975 26.7157 31.0173 25.8074 33.1006 25.8074ZM47.4273 32.5646C47.4273 29.6681 47.2902 20.1905 59.5074 20.1905C64.4117 20.1905 66.4595 21.7665 66.4595 21.7665L64.8136 26.9261C64.8136 26.9261 62.7684 25.7879 60.1035 25.7879C56.6903 25.7879 54.5123 27.7877 54.5123 31.3063L54.5161 33.8294C54.5161 37.2104 56.6175 39.4673 60.1105 39.4673C62.5383 39.4673 64.7759 38.3183 64.7759 38.3183L66.4177 43.3701C66.4177 43.3701 64.5452 44.9561 59.5417 44.9561C47.9089 44.9561 47.4275 36.4529 47.4275 32.5646H47.4273ZM106.261 20.1815C112.879 20.1815 115.955 25.2126 115.955 32.3544C115.955 41.3511 112.027 44.9519 106.257 44.9519C102.956 44.9519 100.516 43.5478 99.1977 40.9269V44.4814L92.4949 44.4787V8.72475L99.6116 8.09744V23.9881C100.639 21.2079 104.014 20.1815 106.262 20.1815H106.261ZM104.266 25.8074C101.487 25.8074 99.6116 27.7668 99.6116 31.0998L99.605 34.504C99.6008 36.7504 100.904 39.3785 104.266 39.3785C108.996 39.3785 108.869 34.2172 108.869 32.4982C108.869 26.7157 106.35 25.8074 104.266 25.8074ZM78.8075 20.2012C71.3014 20.2012 67.3387 24.3374 67.3387 31.6879V33.0535C67.3387 42.5937 72.9036 45.0499 79.538 45.0499C85.9867 45.0499 88.9056 43.2269 88.9056 43.2269L87.5739 38.3723C87.5739 38.3723 84.1403 39.8488 80.3913 39.8488C76.5047 39.8488 74.8332 38.8476 74.4048 35.0727H89.4745V31.1781C89.4745 23.2047 85.0271 20.201 78.8073 20.201L78.8075 20.2012ZM78.9884 25.0623C81.5866 25.0623 83.2702 26.6726 83.1778 30.4072H74.4179C74.5698 26.4766 76.3854 25.0625 78.9884 25.0625V25.0623ZM130.145 20.1685C122.437 20.1685 118.379 24.5587 118.379 32.4262C118.379 43.2208 125.374 44.9584 130.158 44.9584C137.161 44.9584 141.821 41.1477 141.821 32.5242C141.821 23.5487 136.582 20.1685 130.145 20.1685V20.1685ZM130.048 25.8269C133.438 25.8269 134.781 28.3907 134.781 31.309V33.8181C134.781 37.3534 132.901 39.3982 130.035 39.3982C127.355 39.3982 125.471 37.4854 125.471 33.8181V31.309C125.471 27.3978 127.713 25.8269 130.048 25.8269V25.8269ZM155.998 20.1685C148.29 20.1685 144.232 24.5587 144.232 32.4262C144.232 43.2208 151.227 44.9584 156.011 44.9584C163.014 44.9584 167.674 41.1477 167.674 32.5242C167.674 23.5487 162.435 20.1685 155.998 20.1685V20.1685ZM155.901 25.8269C159.291 25.8269 160.634 28.3907 160.634 31.309V33.8181C160.634 37.3534 158.754 39.3982 155.889 39.3982C153.208 39.3982 151.324 37.4854 151.324 33.8181V31.309C151.324 27.3978 153.566 25.8269 155.901 25.8269V25.8269ZM170.363 44.4789V8.72475L177.501 8.09744V32.0621L184.582 20.6429H192.119L184.732 32.4698L192.404 44.4789H184.845L177.501 32.8182V44.4789H170.363Z" fill="#E3E3E7"/>
</svg>
