<svg width="182" height="52" viewBox="0 0 182 52" fill="none" xmlns="http://www.w3.org/2000/svg">
<path d="M19.0575 0H20.4335C25.2107 0.104961 29.9099 2.04674 33.2851 5.48422C32.0389 6.77 30.7667 8.00329 29.5465 9.28907C27.6512 7.55721 25.3664 6.21895 22.874 5.74663C19.1873 4.95942 15.215 5.66791 12.1254 7.79337C8.75023 10.0238 6.4655 13.8024 5.97221 17.8434C5.42699 21.8319 6.54339 26.0304 9.11371 29.1267C11.5802 32.1444 15.3448 34.0337 19.2392 34.1649C22.874 34.3748 26.6646 33.2465 29.3128 30.6749C31.3898 28.8643 32.3504 26.1091 32.662 23.4326C28.3522 23.4326 24.0423 23.4588 19.7325 23.4326V18.0271H37.8805C38.8152 23.8262 37.4651 30.36 33.1034 34.506C30.1955 37.4449 26.1713 39.1768 22.0692 39.5179C18.0968 39.9115 13.9947 39.1505 10.4638 37.2087C6.23183 34.9258 2.85667 31.0685 1.19505 26.5289C-0.362724 22.3567 -0.388687 17.6335 1.06523 13.435C2.38934 9.60395 4.93369 6.21895 8.20501 3.85732C11.3465 1.52194 15.163 0.236163 19.0575 0Z" fill="white"/>
<path d="M123.168 1.36426H128.724V38.8353C126.881 38.8353 125.012 38.8616 123.168 38.8091C123.194 26.345 123.168 13.8546 123.168 1.36426V1.36426Z" fill="white"/>
<path d="M50.2391 14.3539C53.6662 13.6979 57.3789 14.4326 60.2089 16.5056C62.7792 18.3424 64.5706 21.2288 65.1159 24.3776C65.8168 28.025 64.9341 32.0135 62.5975 34.8999C60.0791 38.1274 55.951 39.8592 51.9267 39.5968C48.24 39.3869 44.6571 37.5239 42.4762 34.48C40.0098 31.1213 39.4126 26.503 40.7627 22.567C42.1128 18.3424 45.9293 15.1148 50.2391 14.3539V14.3539ZM51.018 19.3395C49.616 19.7068 48.3179 20.5203 47.3832 21.6749C44.8648 24.7187 45.0206 29.6781 47.7986 32.512C49.3824 34.1389 51.7709 34.8999 53.9778 34.4538C56.0288 34.0864 57.8203 32.6957 58.8069 30.8589C60.5204 27.7363 60.0271 23.4329 57.4049 20.9926C55.7173 19.4182 53.2508 18.7622 51.018 19.3395Z" fill="white"/>
<path d="M77.7554 14.3538C81.6758 13.5929 85.9596 14.695 88.8934 17.4764C93.6706 21.8061 94.1899 29.9144 90.1137 34.9C87.6472 38.0489 83.649 39.7807 79.7026 39.5971C75.938 39.4921 72.2253 37.6028 69.9925 34.4802C67.4741 31.0427 66.9289 26.3194 68.3568 22.3047C69.7848 18.2112 73.5234 15.0886 77.7554 14.3538V14.3538ZM78.5343 19.3395C77.1323 19.7069 75.8341 20.5203 74.8995 21.6487C72.407 24.6401 72.5109 29.5208 75.1851 32.381C76.7688 34.0866 79.2353 34.9263 81.52 34.4539C83.5451 34.0603 85.3625 32.6958 86.3491 30.859C88.0367 27.7102 87.5434 23.4068 84.8952 20.9664C83.2076 19.392 80.7411 18.7622 78.5343 19.3395Z" fill="white"/>
<path d="M101.1 15.8756C104.086 13.9863 108.058 13.4615 111.277 15.0884C112.29 15.5345 113.121 16.2955 113.925 17.0564C113.951 16.3479 113.925 15.6132 113.951 14.8785C115.691 14.9047 117.43 14.8785 119.196 14.9047V38.0486C119.17 41.5386 118.287 45.2385 115.795 47.7838C113.069 50.5915 108.889 51.4574 105.124 50.8801C101.1 50.2766 97.5948 47.3114 96.037 43.5591C97.5948 42.7981 99.2305 42.1946 100.84 41.4861C101.749 43.6378 103.592 45.4746 105.903 45.8945C108.214 46.3143 110.888 45.737 112.394 43.7952C114.003 41.801 114.003 39.072 113.925 36.6317C112.731 37.8125 111.355 38.8621 109.693 39.2557C106.085 40.279 102.112 39.0195 99.3343 36.5529C96.5303 34.0863 94.8687 30.2815 95.0245 26.5029C95.1024 22.2258 97.4909 18.106 101.1 15.8756V15.8756ZM106.474 19.2344C104.89 19.4968 103.41 20.3889 102.398 21.6222C99.9574 24.5611 99.9574 29.2581 102.424 32.1446C103.826 33.8502 106.085 34.7948 108.266 34.5587C110.317 34.3487 112.212 33.0367 113.224 31.2262C114.938 28.1561 114.652 23.9839 112.342 21.3073C110.914 19.6542 108.629 18.8408 106.474 19.2344V19.2344Z" fill="white"/>
<path d="M135.393 17.2127C138.509 14.2738 143.312 13.2766 147.31 14.8248C151.101 16.268 153.515 19.9154 154.736 23.6678C149.102 26.0294 143.494 28.3648 137.86 30.7264C138.639 32.2221 139.833 33.5866 141.443 34.1377C143.701 34.9511 146.402 34.6625 148.297 33.1405C149.05 32.5632 149.647 31.8023 150.218 31.0675C151.646 32.0384 153.074 32.9831 154.502 33.954C152.477 37.0241 149.076 39.1758 145.415 39.5169C141.365 40.0155 137.055 38.4411 134.433 35.2397C130.123 30.2016 130.538 21.7522 135.393 17.2127V17.2127ZM138.171 22.0671C137.289 23.3529 136.925 24.9273 136.951 26.4755C140.716 24.9011 144.48 23.3267 148.245 21.726C147.622 20.2565 146.116 19.3644 144.584 19.1282C142.118 18.6821 139.547 20.0204 138.171 22.0671V22.0671Z" fill="white"/>
</svg>
