<svg width="196" height="53" viewBox="0 0 196 53" fill="none" xmlns="http://www.w3.org/2000/svg">
<path d="M40.0867 45.8949L28.6582 45.6835C24.9578 45.61 21.2484 45.757 17.6207 44.9944C12.102 43.8549 11.711 38.268 11.3019 33.5817C10.7382 26.9932 10.9564 20.2853 12.0201 13.752C12.6202 10.0856 14.9841 7.89861 18.639 7.6597C30.9766 6.79594 43.3961 6.89701 55.7065 7.30133C57.0066 7.33808 58.3159 7.54024 59.5978 7.76996C65.9257 8.89101 66.0803 15.2222 66.4894 20.5518C66.8986 25.9365 66.7258 31.3488 65.9439 36.6967C65.3166 41.1258 64.1165 44.8381 59.0523 45.1965C52.7062 45.6651 46.5055 46.0419 40.1412 45.9224C40.1412 45.8949 40.1049 45.8949 40.0867 45.8949V45.8949ZM33.3678 34.6844C38.1501 31.9093 42.8415 29.1802 47.5966 26.4235C42.8052 23.6484 38.1228 20.9193 33.3678 18.1627V34.6844Z" fill="#E3E3E7"/>
<path d="M158.157 40.8604C157.939 41.7609 157.748 42.4685 157.557 43.222H153.084V8.34961H158.303V21.2143C158.575 20.8651 158.712 20.718 158.83 20.5618C159.721 19.3213 160.876 18.5127 162.367 18.2003C164.74 17.7316 166.767 18.7883 167.485 21.0948C167.949 22.5283 168.249 24.0629 168.285 25.5607C168.358 29.4109 168.304 33.2519 168.167 37.1021C168.113 38.2783 167.758 39.482 167.313 40.5847C165.849 44.2236 161.066 44.7749 158.693 41.6231C158.548 41.4301 158.412 41.2188 158.157 40.8604V40.8604ZM158.412 31.2671V37.6442C158.412 38.6826 158.957 39.3166 159.985 39.5556C160.994 39.7945 161.812 39.3993 162.221 38.4529C162.394 38.0577 162.567 37.6442 162.576 37.2307C162.676 33.3346 162.767 29.4384 162.794 25.5331C162.794 24.8072 162.621 24.0537 162.403 23.3461C161.994 22.0688 160.866 21.6921 159.757 22.4364C158.921 23.0061 158.412 23.8148 158.412 24.8899V31.2671ZM144.228 18.6965H149.693V43.2404H145.428C145.274 42.3123 145.119 41.3566 144.938 40.2356C144.647 40.6674 144.474 40.9431 144.292 41.2188C142.874 43.2863 140.864 43.9939 138.491 43.6171C136.464 43.2863 135.246 41.7058 134.973 39.1145C134.891 38.3426 134.855 37.5615 134.855 36.7897C134.836 31.0465 134.855 25.285 134.855 19.5419V18.6781H140.383V19.6797C140.383 25.2299 140.364 30.7708 140.401 36.321C140.401 37.1113 140.483 37.9291 140.619 38.7194C140.773 39.528 141.355 39.822 142.137 39.7669C143.401 39.6658 144.274 38.7194 144.274 37.4513V19.7808C144.228 19.4224 144.228 19.0916 144.228 18.6965V18.6965ZM106.606 18.6781H112.098V19.7164C112.098 25.239 112.08 30.7525 112.116 36.2567C112.116 37.047 112.189 37.8648 112.352 38.6367C112.561 39.5464 113.089 39.8404 113.989 39.721C115.234 39.5464 115.989 38.6734 115.998 37.3961V19.8175V18.7148H121.462V43.2404H117.216C117.062 42.3306 116.907 41.3934 116.707 40.208C116.435 40.6215 116.28 40.8604 116.125 41.1085C114.707 43.2128 112.716 43.9847 110.289 43.6079C108.343 43.3139 107.152 41.862 106.788 39.482C106.688 38.7377 106.615 38.0026 106.615 37.2583C106.597 31.2946 106.597 25.3034 106.597 19.3397L106.606 18.6781ZM103.788 31.7816C103.77 32.6087 103.715 33.4357 103.67 34.2627C103.461 36.7437 103.361 40.2631 101.378 42.0734C100.115 43.2128 98.5146 43.6263 96.8598 43.6814C96.1234 43.6998 95.3779 43.6998 94.6414 43.5987C91.1593 43.0658 89.5409 41.5128 88.959 37.6442C88.2953 33.1784 88.2408 28.639 89.0318 24.1731C89.85 19.551 92.6685 17.9154 97.0508 18.2186C101.142 18.5127 102.97 21.2234 103.451 25.0828C103.715 27.2974 103.842 29.5395 103.788 31.7816V31.7816ZM98.2236 30.9363C98.2236 29.3649 98.26 27.7844 98.2054 26.2131C98.1691 25.3034 98.0509 24.3845 97.8599 23.4839C97.6417 22.4456 96.9871 21.9494 96.1689 21.9678C95.3688 21.9861 94.8051 22.4823 94.5141 23.4472C94.4141 23.8056 94.305 24.1731 94.305 24.5315C94.305 26.9942 94.2869 29.466 94.2687 31.9287C94.2505 34.2259 93.9595 36.6334 94.6778 38.8296C94.896 39.5004 95.4597 39.868 96.1961 39.868C96.9144 39.868 97.3872 39.5096 97.6508 38.8664C97.8599 38.3702 98.0418 37.828 98.0418 37.2951C98.1054 35.1816 98.2236 33.0589 98.2236 30.9363ZM80.94 26.3142C81.4219 23.9342 81.8765 21.6094 82.3765 19.2754C83.0039 16.3073 83.7039 13.3393 84.3222 10.362C84.4768 9.63607 84.7677 9.46148 85.4496 9.47986C86.9134 9.53499 88.4044 9.49824 89.9682 9.49824C89.4591 11.3912 88.959 13.1922 88.4681 14.9657C86.9134 20.5343 85.3587 26.1212 83.8221 31.7081C83.7039 32.14 83.6494 32.6087 83.6494 33.0681C83.6312 36.1189 83.6494 39.1604 83.6494 42.2112V43.2036H78.3125C78.2943 42.9279 78.2579 42.6523 78.2579 42.3766C78.2579 40.6491 78.1216 38.9123 78.2761 37.2032C78.6671 33.0957 77.376 29.319 76.3305 25.4963C74.9485 20.4424 73.5484 15.37 72.1664 10.3161C72.0937 10.0771 72.0664 9.81985 71.9937 9.52581H77.4397C78.5852 15.1035 79.7399 20.6813 80.94 26.3142ZM185.36 32.7189H176.159C176.259 34.5843 176.295 36.3578 176.486 38.1129C176.623 39.335 177.286 39.8588 178.332 39.868C179.423 39.8864 180.059 39.335 180.314 38.1221C180.396 37.7269 180.45 37.3318 180.487 36.9275C180.523 36.5691 180.541 36.1832 180.568 35.6686C182.123 35.7513 183.641 35.8432 185.142 35.9075C186.014 38.5264 184.442 41.8896 181.796 42.9279C179.714 43.7549 177.577 43.7549 175.45 43.1209C173.877 42.6523 172.704 41.6415 172.177 40.0885C171.686 38.6367 171.222 37.1205 171.122 35.6043C170.849 31.8643 170.749 28.0877 171.313 24.3385C171.413 23.7137 171.586 23.1164 171.777 22.5099C172.54 20.0105 174.204 18.4759 176.777 18.2186C178.177 18.0808 179.623 18.1359 181.005 18.3748C183.241 18.77 184.432 20.3964 184.951 22.5283C185.187 23.5299 185.36 24.5591 185.396 25.579C185.405 27.9222 185.36 30.2471 185.36 32.7189ZM180.132 29.4936C180.132 27.6466 180.15 25.9099 180.114 24.1639C180.114 23.7504 179.959 23.3185 179.805 22.9234C179.496 22.1515 178.85 21.9402 178.077 21.9402C177.304 21.9402 176.814 22.3353 176.623 23.0429C176.041 25.1655 176.232 27.3341 176.25 29.512C177.641 29.4936 178.905 29.4936 180.132 29.4936V29.4936Z" fill="#E3E3E7"/>
<path d="M125.681 14.0024H120.271V9.57324H136.418V13.9748H131.045V43.2051H125.69L125.681 14.0024Z" fill="#E3E3E7"/>
</svg>
