<svg width="196" height="53" viewBox="0 0 196 53" fill="none" xmlns="http://www.w3.org/2000/svg">
<path d="M166.539 10.2181H159.955V1H145.497L138.848 10.2181H127.033L123.082 14.1687V10.2181H113.864V1H84.8929V10.2181H44.1358L37.4856 1H23V32.6049L41.4362 51.0411H59.8724V45.7736L65.1399 51.0411H100.695V45.7736L105.963 51.0411H123.082V45.7736L128.35 51.0411H161.271L173.123 39.1893V16.8025L166.539 10.2181ZM45.3868 23.3868H36.1687V26.0205H45.3868V36.5555H30.9012L25.6337 31.288V3.63374H36.1687V12.8518H45.3868V23.3868ZM84.8929 36.5555H53.288L48.0205 31.288V12.8518H58.5555V26.0205H61.1893V12.8518H71.7242V26.0205H74.358V12.8518H84.8929V36.5555ZM98.0616 36.5555H87.5267V12.8518H98.0616V36.5555ZM98.0616 10.2181H87.5267V3.63374H98.0616V10.2181ZM120.448 23.3868H111.23V26.0205H120.448V36.5555H105.963L100.695 31.288V3.63374H111.23V12.8518H120.448V23.3868ZM144.152 23.3868H133.617V26.0205H144.152V36.5555H128.35L123.082 31.288V18.1193L128.35 12.8518H144.152V23.3868ZM170.49 36.5555H159.955V23.3868H157.321V36.5555H146.786V3.63374H157.321V12.8518H165.222L170.49 18.1193V36.5555Z" fill="#E3E3E7"/>
</svg>
