<svg width="196" height="53" viewBox="0 0 196 53" fill="none" xmlns="http://www.w3.org/2000/svg">
<path d="M65.326 21.3752C65.326 18.0237 62.067 14.4643 56.4273 14.4643C50.0943 14.4643 43.1371 19.1101 42.0739 28.3785C40.9876 37.7395 46.8122 41.8999 52.683 41.8999C58.5538 41.8999 61.6279 39.6116 64.7713 36.5607C62.067 33.163 58.5769 34.7347 57.9066 35.0814C57.167 35.4512 56.2193 35.9597 54.2778 35.9597C52.0127 35.9597 49.7013 34.9427 49.7013 30.713C64.2166 29.28 65.326 24.7266 65.326 21.3752ZM58.1377 21.9299C58.0453 22.97 57.6292 24.7497 50.2792 25.7436C51.8278 20.2426 54.7863 19.8266 56.15 19.8266C57.4212 19.8266 58.2302 20.8204 58.1377 21.9299ZM33.5451 22.8313C33.5451 22.8313 30.4248 32.6314 30.1705 33.4404C30.0781 32.6083 27.7898 15.019 27.7898 15.019C22.4737 15.019 19.6308 18.8096 18.1284 22.8082C18.1284 22.8082 14.3378 32.6314 14.0142 33.4635C13.9911 32.7007 13.4364 22.9238 13.4364 22.9238C13.1128 18.0237 8.62881 15.0421 5 15.0421L9.39155 41.6919C14.9619 41.6687 17.9666 37.9013 19.5383 33.9026C19.5383 33.9026 22.8898 25.2351 23.0285 24.8422C23.0516 25.212 25.4323 41.6919 25.4323 41.6919C31.0257 41.6919 34.0305 38.1555 35.6484 34.2956L43.4838 15.0421C37.9597 15.0421 35.0474 18.8096 33.5451 22.8313ZM85.8507 14.418C82.4068 14.418 79.7719 16.2902 77.553 19.0407V19.0176L79.5408 3C74.9643 3 71.243 6.97551 70.5265 12.8925L67.0595 41.4838C69.6944 41.4838 72.4912 40.7211 73.9935 38.7796C75.3341 40.5131 77.345 41.8999 80.3266 41.8999C88.0465 41.8999 93.3395 32.9319 93.3395 24.5186C93.2932 16.8449 89.572 14.418 85.8507 14.418ZM85.1342 28.1705C84.3252 32.8625 81.7134 36.0522 79.1941 36.0522C76.6516 36.0522 75.5653 34.9196 75.5653 34.9196C76.0506 30.8054 76.3511 28.2861 77.2757 26.1134C78.2002 23.9408 80.396 20.4737 82.6842 20.4737C84.9262 20.4737 85.9432 23.4554 85.1342 28.1705ZM112.616 15.0421H107.231L107.254 14.7647C107.624 11.2515 108.456 9.40242 111.206 9.10194C113.078 8.91703 113.91 7.94627 114.118 6.88305C114.28 6.05097 114.789 3.16179 114.789 3.16179C103.972 3.09245 100.574 7.76136 99.6957 14.8803L99.6725 15.0421H99.557C97.8004 15.0421 95.8588 17.0298 95.5352 19.5492L95.4197 20.4737H99.0254L95.9975 45.4825L95.073 49.9665C95.1885 49.9665 95.3272 49.9896 95.4428 49.9896C100.505 49.8047 103.741 45.806 104.457 40.0046L106.815 20.4737H108.502C110.166 20.4737 112.108 18.8096 112.454 16.036L112.616 15.0421ZM140.63 14.5798C134.412 14.5798 128.541 19.1563 126.738 26.3445C124.936 33.5328 127.663 42.0386 136.816 42.0386C145.946 42.0386 151.215 33.1861 151.215 25.8129C151.215 18.486 146.246 14.5798 140.63 14.5798ZM143.149 27.9394C142.825 31.1984 141.392 36.1446 137.463 36.1446C133.511 36.1446 134.065 30.3663 134.458 27.6158C134.874 24.6804 136.515 20.4969 140.052 20.4969C143.218 20.4969 143.519 24.2643 143.149 27.9394ZM181.933 22.8313C181.933 22.8313 178.813 32.6314 178.559 33.4404C178.466 32.6083 176.178 15.019 176.178 15.019C170.862 15.019 168.019 18.8096 166.517 22.8082C166.517 22.8082 162.726 32.6314 162.402 33.4635C162.379 32.7007 161.825 22.9238 161.825 22.9238C161.501 18.0237 157.017 15.0421 153.388 15.0421L157.757 41.6919C163.327 41.6687 166.332 37.9013 167.903 33.9026C167.903 33.9026 171.255 25.2351 171.37 24.8422C171.417 25.212 173.774 41.6919 173.774 41.6919C179.368 41.6919 182.372 38.1555 183.99 34.2956L191.826 15.0421C186.325 15.0421 183.412 18.8096 181.933 22.8313ZM117.701 3.16179L113.171 39.7041L112.246 44.2112C112.362 44.2112 112.5 44.2343 112.616 44.2343C117.493 44.165 120.96 39.889 121.607 34.5036L124.219 13.5397C125.005 7.1373 121.191 3.16179 117.701 3.16179Z" fill="#E3E3E7"/>
</svg>
