<svg width="76" height="76" viewBox="0 0 76 76" fill="none" xmlns="http://www.w3.org/2000/svg">
<path d="M62.5871 37.8132L61.8678 37.4718L41.5809 47.094C39.3265 48.1626 36.6734 48.1626 34.419 47.094L14.1321 37.4718L13.4128 37.8132C11.4451 38.7462 11.4451 42.4098 13.4128 43.3428L34.419 53.3065C36.6734 54.375 39.3265 54.375 41.5809 53.3065L62.5871 43.3428C64.5549 42.4098 64.5549 38.7462 62.5871 37.8132Z" fill="white"/>
<path opacity="0.45" d="M34.419 47.1504L13.4128 37.1868C11.4451 36.2537 11.4451 33.5902 13.4128 32.6571L34.419 22.6935C36.6734 21.625 39.3265 21.625 41.5809 22.6935L62.5871 32.6571C64.5549 33.5902 64.5549 36.2537 62.5871 37.1868L41.5809 47.1504C39.3265 48.2215 36.6734 48.2215 34.419 47.1504Z" fill="white"/>
</svg>
