<svg width="76" height="76" viewBox="0 0 76 76" fill="none" xmlns="http://www.w3.org/2000/svg">
<path d="M39.0174 56.2968C37.7752 56.2968 36.6061 55.5323 36.1548 54.2962L27.8354 31.6089L19.5159 54.2982C18.9345 55.88 17.1799 56.6912 15.6022 56.1118C14.0225 55.5323 13.2093 53.7798 13.7887 52.1981L24.9707 21.7016C25.4119 20.5001 26.5565 19.701 27.8354 19.701C29.1142 19.701 30.2588 20.5001 30.6979 21.6996L41.88 52.196C42.4594 53.7778 41.6482 55.5303 40.0665 56.1097C39.7208 56.2378 39.365 56.2968 39.0174 56.2968Z" fill="white"/>
<path d="M34.9512 48.1644H20.7196C19.0341 48.1644 17.6699 46.8001 17.6699 45.1147C17.6699 43.4293 19.0341 42.0651 20.7196 42.0651H34.9512C36.6367 42.0651 38.0009 43.4293 38.0009 45.1147C38.0009 46.8001 36.6367 48.1644 34.9512 48.1644Z" fill="white"/>
<path opacity="0.45" d="M62.189 52.7448L55.5814 37.4966C55.1789 36.5675 54.2619 35.9657 53.2495 35.9657C52.237 35.9657 51.3201 36.5675 50.9175 37.4966L44.3099 52.7448C43.7529 54.0318 44.3445 55.5302 45.6314 56.0872C46.9225 56.6463 48.4148 56.0547 48.9739 54.7657L50.0717 52.2305H56.4252L57.523 54.7657C57.9418 55.7254 58.8771 56.2967 59.857 56.2967C60.1945 56.2967 60.5361 56.2296 60.8675 56.0852C62.1544 55.5302 62.746 54.0318 62.189 52.7448ZM51.8344 48.1643L53.2495 44.8991L54.6645 48.1643H51.8344Z" fill="white"/>
</svg>
